#!OML:ASF E:\emotionWalksFemale\Project 1\Capture day 1\Session 1\Female1.ASF
:FULLY-SPECIFIED
:DEGREES
1780
root 10.5642 15.4286 -32.7368 -1.32195 4.11111 1.38911
lowerback 4.30817 1.22052 -5.00195
upperback -3.29725 1.21238 -1.37304
thorax -5.93369 0.774518 1.25791
lowerneck -7.2294 -7.10501 -7.77212
upperneck 28.9272 -15.6003 21.9253
head 13.5386 -5.58697 7.88038
rclavicle -7.8023e-015 3.4191e-014
rhumerus -45.5476 11.1409 -94.4367
rradius 30.7314
rwrist 16.8948
rhand -6.43113 -51.6455
rfingers 7.12502
rthumb 19.4179 -80.696
lclavicle -7.8023e-015 3.4191e-014
lhumerus -39.0599 -0.340061 84.0098
lradius 34.7644
lwrist -14.7029
lhand -5.49161 -34.2985
lfingers 7.12502
lthumb 20.321 -5.34164
rfemur -10.9477 -3.92904 20.2858
rtibia 67.8042
rfoot 7.91394 -13.2926
rtoes 12.6636
lfemur -5.14582 -18.6274 -30.3174
ltibia 22.0328
lfoot -19.5401 13.9925
ltoes -16.0917
1781
root 10.5751 15.4318 -32.6919 -1.47771 4.34582 1.37777
lowerback 4.56785 1.13376 -5.01914
upperback -3.35828 1.07685 -1.35197
thorax -6.14018 0.713591 1.29661
lowerneck -7.16474 -7.13674 -7.73139
upperneck 29.1323 -15.6693 21.8036
head 13.6109 -5.61948 7.82769
rclavicle 4.96962e-017 -1.74931e-014
rhumerus -45.7298 10.9752 -94.3681
rradius 30.7201
rwrist 16.8744
rhand -6.98703 -51.704
rfingers 7.12502
rthumb 18.8833 -80.8074
lclavicle 4.96962e-017 -1.74931e-014
lhumerus -39.3549 -0.427745 84.0088
lradius 34.7468
lwrist -14.9324
lhand -5.76727 -33.8933
lfingers 7.12502
lthumb 20.0561 -4.90841
rfemur -11.6644 -4.11195 20.3285
rtibia 68.7657
rfoot 7.16437 -13.1442
rtoes 11.6981
lfemur -4.63402 -18.8625 -30.4891
ltibia 21.8181
lfoot -19.9301 13.9232
ltoes -14.2997
1782
root 10.5822 15.4336 -32.6563 -1.5204 4.34658 1.41091
lowerback 4.53472 1.13189 -5.2149
upperback -3.26441 1.06993 -1.27954
thorax -6.02794 0.716371 1.48434
lowerneck -7.27977 -7.12443 -7.68663
upperneck 29.135 -15.6482 21.7758
head 13.6262 -5.59931 7.80716
rclavicle -3.8266e-015 2.38542e-014
rhumerus -45.5836 10.6564 -93.9981
rradius 30.7112
rwrist 17.3423
rhand -7.01467 -51.7655
rfingers 7.12502
rthumb 18.8567 -80.8715
lclavicle -3.8266e-015 2.38542e-014
lhumerus -39.2453 -0.493039 84.0848
lradius 34.3943
lwrist -15.7672
lhand -7.13177 -35.0317
lfingers 7.12502
lthumb 18.7441 -5.9148
rfemur -12.6114 -4.14139 20.3466
rtibia 69.7109
rfoot 6.60715 -12.612
rtoes 7.95955
lfemur -4.31864 -18.9204 -30.6413
ltibia 21.6183
lfoot -20.0914 13.8405
ltoes -11.875
1783
root 10.5861 15.4327 -32.6221 -1.43996 4.31835 1.44853
lowerback 4.85718 1.11937 -5.27161
upperback -3.4733 1.01557 -1.33345
thorax -6.43227 0.702192 1.45574
lowerneck -7.32736 -7.13891 -7.64368
upperneck 29.372 -15.7422 21.7787
head 13.7622 -5.62281 7.80766
rclavicle -5.96354e-015 1.27222e-014
rhumerus -45.7082 10.2767 -93.889
rradius 30.7501
rwrist 17.413
rhand -6.58647 -52.0694
rfingers 7.12502
rthumb 19.2685 -81.1348
lclavicle -5.96354e-015 1.27222e-014
lhumerus -39.4358 -0.716543 84.104
lradius 34.74
lwrist -14.8464
lhand -5.91714 -33.3692
lfingers 7.12502
lthumb 19.912 -4.36926
rfemur -13.7371 -4.08376 20.4076
rtibia 70.6161
rfoot 5.95313 -12.2126
rtoes 5.42925
lfemur -4.2105 -18.9313 -30.7151
ltibia 21.4333
lfoot -19.651 13.6725
ltoes -10.0374
1784
root 10.5952 15.4294 -32.5797 -1.55187 4.53554 1.54165
lowerback 4.76543 1.02076 -5.55915
upperback -3.31701 0.882028 -1.20353
thorax -6.2135 0.644751 1.77025
lowerneck -6.92888 -7.0941 -7.91619
upperneck 29.0125 -15.6261 22.0449
head 13.5419 -5.62126 7.97553
rclavicle 9.93923e-017 -1.07344e-014
rhumerus -45.3829 10.3941 -93.5725
rradius 30.8671
rwrist 16.5574
rhand -6.11847 -52.5852
rfingers 7.12502
rthumb 19.7185 -81.6051
lclavicle 9.93923e-017 -1.07344e-014
lhumerus -39.1567 -0.274708 84.1165
lradius 34.2082
lwrist -15.4711
lhand -6.99485 -33.9392
lfingers 7.12502
lthumb 18.8758 -4.83508
rfemur -14.5394 -4.19632 20.3564
rtibia 71.4267
rfoot 4.72319 -12.1135
rtoes 5.98172
lfemur -3.88989 -19.1183 -30.9639
ltibia 21.3828
lfoot -18.7961 13.7342
ltoes -11.2435
1785
root 10.6059 15.4256 -32.5386 -1.65204 4.64466 1.58935
lowerback 4.82285 0.933948 -5.5421
upperback -3.2551 0.764275 -1.22892
thorax -6.17127 0.583321 1.7465
lowerneck -6.95693 -7.06272 -7.92033
upperneck 28.9934 -15.61 22.1486
head 13.5508 -5.60514 8.02411
rclavicle 1.33683e-014 -1.19271e-015
rhumerus -45.2114 10.2521 -93.4372
rradius 30.9104
rwrist 16.0989
rhand -6.15886 -52.6726
rfingers 7.12502
rthumb 19.6796 -81.6964
lclavicle 1.33683e-014 -1.19271e-015
lhumerus -39.1219 -0.223042 84.008
lradius 34.1864
lwrist -15.4316
lhand -6.4696 -33.8713
lfingers 7.12502
lthumb 19.3809 -4.81714
rfemur -15.3949 -4.24418 20.3521
rtibia 72.131
rfoot 3.40715 -11.9604
rtoes 5.48282
lfemur -3.5836 -19.2825 -31.1842
ltibia 21.4171
lfoot -19.9908 13.5851
ltoes -4.63886
1786
root 10.6158 15.4195 -32.5 -1.7894 4.6931 1.53373
lowerback 5.10782 0.919765 -5.53023
upperback -3.32497 0.725871 -1.1779
thorax -6.40731 0.571567 1.79243
lowerneck -7.35531 -7.1108 -7.74298
upperneck 29.3963 -15.7167 21.8528
head 13.7929 -5.61416 7.86711
rclavicle -1.14798e-014 -1.31198e-014
rhumerus -45.3635 9.92435 -93.1818
rradius 30.9595
rwrist 16.1488
rhand -6.48259 -52.2701
rfingers 7.12502
rthumb 19.3684 -81.3256
lclavicle -1.14798e-014 -1.31198e-014
lhumerus -39.3919 -0.207392 84.0011
lradius 34.2566
lwrist -15.5231
lhand -5.59006 -33.9628
lfingers 7.12502
lthumb 20.2264 -4.99592
rfemur -16.2332 -4.23462 20.4826
rtibia 72.6888
rfoot 2.36963 -11.848
rtoes 3.2986
lfemur -3.20213 -19.3445 -31.303
ltibia 21.4494
lfoot -19.6761 13.9056
ltoes -6.82354
1787
root 10.6257 15.4148 -32.4559 -1.981 4.70514 1.54383
lowerback 5.39577 0.923283 -5.54371
upperback -3.39307 0.706677 -1.16826
thorax -6.64503 0.569423 1.80744
lowerneck -6.91257 -7.16553 -7.85921
upperneck 29.4471 -15.8187 21.9136
head 13.7552 -5.69526 7.91745
rclavicle 1.0635e-014 -1.15295e-014
rhumerus -45.543 9.57743 -92.981
rradius 31.0062
rwrist 16.2801
rhand -6.72229 -52.0226
rfingers 7.12502
rthumb 19.1379 -81.101
lclavicle 1.0635e-014 -1.15295e-014
lhumerus -39.7249 -0.330302 84.0236
lradius 34.2642
lwrist -15.5103
lhand -5.69506 -34.1034
lfingers 7.12502
lthumb 20.1255 -5.12579
rfemur -16.964 -4.12093 20.5418
rtibia 73.1157
rfoot 1.33194 -12.0407
rtoes 1.89632
lfemur -2.75982 -19.4387 -31.533
ltibia 21.5363
lfoot -19.9421 14.1168
ltoes -6.67823
1788
root 10.635 15.4068 -32.4089 -1.98479 4.73548 1.57223
lowerback 5.19116 0.848941 -5.62745
upperback -3.28221 0.624102 -1.09338
thorax -6.40526 0.526906 1.94585
lowerneck -6.80893 -7.09491 -8.00663
upperneck 29.2515 -15.6949 22.0872
head 13.651 -5.65792 8.02916
rclavicle 2.78299e-014 -4.37326e-015
rhumerus -45.282 9.66919 -92.8334
rradius 30.922
rwrist 16.0977
rhand -7.22748 -51.8548
rfingers 7.12502
rthumb 18.652 -80.9806
lclavicle 2.78299e-014 -4.37326e-015
lhumerus -39.6953 -0.23591 84.0561
lradius 34.1538
lwrist -15.7153
lhand -6.56524 -34.6744
lfingers 7.12502
lthumb 19.2889 -5.61099
rfemur -17.8367 -4.0014 20.6152
rtibia 73.4627
rfoot 0.148282 -12.4108
rtoes 1.10949
lfemur -2.62944 -19.7418 -31.7157
ltibia 21.646
lfoot -20.0508 14.5721
ltoes -7.26005
1789
root 10.6444 15.3956 -32.3623 -1.90977 4.71523 1.56546
lowerback 4.89553 0.785516 -5.65413
upperback -3.20618 0.565437 -1.02673
thorax -6.15083 0.493394 2.04089
lowerneck -6.98743 -7.04863 -7.95666
upperneck 29.2906 -15.6143 22.006
head 13.6756 -5.61047 7.99449
rclavicle -5.96354e-015 3.97569e-015
rhumerus -44.9032 9.76644 -92.6719
rradius 31.2076
rwrist 15.0781
rhand -6.06536 -52.997
rfingers 7.12502
rthumb 19.7695 -82.0116
lclavicle -5.96354e-015 3.97569e-015
lhumerus -39.5929 0.157273 83.935
lradius 33.8155
lwrist -16.3846
lhand -7.152 -35.8335
lfingers 7.12502
lthumb 18.7246 -6.71473
rfemur -18.7623 -3.85615 20.7507
rtibia 73.7492
rfoot -1.34969 -12.9511
rtoes -0.791142
lfemur -2.57417 -19.9397 -31.816
ltibia 21.7033
lfoot -19.7996 15.0333
ltoes -9.10154
1790
root 10.6541 15.3878 -32.3145 -1.99482 4.62274 1.6336
lowerback 4.79591 0.783509 -5.81475
upperback -3.14823 0.564016 -0.958291
thorax -6.03578 0.497054 2.20403
lowerneck -6.91 -7.03837 -7.9243
upperneck 29.278 -15.5726 21.9154
head 13.6269 -5.6022 7.95366
rclavicle -1.32689e-014 -8.34896e-015
rhumerus -44.7127 9.76336 -92.4727
rradius 31.0389
rwrist 15.2268
rhand -6.57141 -52.0962
rfingers 7.12502
rthumb 19.283 -81.1602
lclavicle -1.32689e-014 -8.34896e-015
lhumerus -39.5989 0.491372 83.8839
lradius 33.5521
lwrist -16.7002
lhand -7.1117 -36.613
lfingers 7.12502
lthumb 18.7634 -7.49799
rfemur -19.5112 -3.65945 20.7843
rtibia 73.9539
rfoot -2.98349 -13.5856
rtoes -2.99771
lfemur -2.27684 -19.8216 -32.0432
ltibia 21.7539
lfoot -19.4944 15.3156
ltoes -10.7921
1791
root 10.6631 15.3802 -32.2711 -2.08759 4.65055 1.71178
lowerback 4.94564 0.745961 -5.97964
upperback -3.14812 0.493516 -0.899848
thorax -6.1195 0.472572 2.36326
lowerneck -6.80454 -7.05876 -8.0199
upperneck 29.2334 -15.6014 21.9776
head 13.6058 -5.63002 7.99412
rclavicle 2.32578e-014 -1.59028e-015
rhumerus -44.6875 9.7452 -92.3244
rradius 31.0655
rwrist 15.6465
rhand -7.15848 -51.3334
rfingers 7.12502
rthumb 18.7184 -80.4528
lclavicle 2.32578e-014 -1.59028e-015
lhumerus -39.7715 0.543979 83.9486
lradius 33.6083
lwrist -16.5352
lhand -6.98136 -36.6192
lfingers 7.12502
lthumb 18.8887 -7.51634
rfemur -20.2774 -3.58483 20.7996
rtibia 74.0664
rfoot -4.27887 -14.0268
rtoes -4.01639
lfemur -2.00397 -19.7229 -32.2698
ltibia 21.8206
lfoot -19.3083 15.5321
ltoes -11.8643
